<svg width="800" height="800" viewBox="0 0 800 800" fill="none" xmlns="http://www.w3.org/2000/svg">
  <rect width="800" height="800" fill="#F5F0EB"/>
  <rect x="200" y="200" width="400" height="400" rx="20" fill="#E8DED4"/>
  <path d="M400 320C355.8 320 320 355.8 320 400C320 444.2 355.8 480 400 480C444.2 480 480 444.2 480 400C480 355.8 444.2 320 400 320ZM400 456C369.1 456 344 430.9 344 400C344 369.1 369.1 344 400 344C430.9 344 456 369.1 456 400C456 430.9 430.9 456 400 456Z" fill="#C4A484"/>
  <path d="M520 280H280C268.95 280 260 288.95 260 300V500C260 511.05 268.95 520 280 520H520C531.05 520 540 511.05 540 500V300C540 288.95 531.05 280 520 280ZM520 500H280V300H520V500Z" fill="#C4A484"/>
  <circle cx="480" cy="330" r="20" fill="#C4A484"/>
</svg>
